<?xml version="1.0" encoding="utf-8"?>
<!-- Generator: Adobe Illustrator 27.0.0, SVG Export Plug-In . SVG Version: 6.00 Build 0)  -->
<svg version="1.1" id="PRINT" xmlns="http://www.w3.org/2000/svg" xmlns:xlink="http://www.w3.org/1999/xlink" x="0px" y="0px"
	 viewBox="0 0 348.81 301.34" style="enable-background:new 0 0 348.81 301.34;" xml:space="preserve">
<style type="text/css">
	.st0{fill:#FFFFFF;}
	.st1{font-family:'Microsoft-Himalaya';}
	.st2{font-size:36px;}
	.st3{letter-spacing:2;}
	.st4{font-family:'NovaSlim';}
	.st5{font-size:67.4719px;}
	.st6{fill:#B73734;}
	.st7{fill:#C17816;}
</style>
<g>
	<g id="CUSTOM-group_00000067931742726523658310000005265896194119318161_">
		<g>
			<text transform="matrix(0.9997 -0.0236 0.0236 0.9997 110.5645 254.8069)"><tspan x="0" y="0" class="st0 st1 st2 st3">M</tspan><tspan x="23.87" y="-0.33" class="st0 st1 st2 st3">u</tspan><tspan x="38.35" y="-0.56" class="st0 st1 st2 st3">s</tspan><tspan x="50.16" y="-0.75" class="st0 st1 st2 st3">i</tspan><tspan x="59.29" y="-0.94" class="st0 st1 st2 st3">c</tspan><tspan x="72.42" y="-1.13" class="st0 st1 st2 st3"> </tspan><tspan x="80.87" y="-1.34" class="st0 st1 st2 st3">S</tspan><tspan x="96.71" y="-1.56" class="st0 st1 st2 st3">t</tspan><tspan x="105.83" y="-1.77" class="st0 st1 st2 st3">u</tspan><tspan x="120.31" y="-2.02" class="st0 st1 st2 st3">d</tspan><tspan x="134.8" y="-2.22" class="st0 st1 st2 st3">i</tspan><tspan x="143.92" y="-2.43" class="st0 st1 st2 st3">o</tspan></text>
		</g>
		<g>
			<text transform="matrix(0.9964 -0.0853 0.0853 0.9964 12.1197 235.2875)" class="st0 st4 st5">LoudSound</text>
		</g>
		<g id="CUSTOM-group">
			<g>
				<g>
					<g>
						<path class="st6" d="M269.59,109.67c-1.41,0-2.55-1.14-2.55-2.55V90.75c0-1.41,1.14-2.55,2.55-2.55
							c1.41,0,2.55,1.14,2.55,2.55v16.37C272.14,108.53,271,109.67,269.59,109.67z"/>
					</g>
					<g>
						<path class="st6" d="M259.02,126.31c-1.41,0-2.55-1.14-2.55-2.55V74.11c0-1.41,1.14-2.55,2.55-2.55
							c1.41,0,2.55,1.14,2.55,2.55v49.65C261.57,125.17,260.43,126.31,259.02,126.31L259.02,126.31z"/>
					</g>
					<g>
						<path class="st6" d="M248.46,120.75c-1.41,0-2.55-1.14-2.55-2.55V79.66c0-1.41,1.14-2.55,2.55-2.55s2.55,1.14,2.55,2.55v38.54
							C251.01,119.61,249.87,120.75,248.46,120.75z"/>
					</g>
					<g>
						<path class="st6" d="M237.89,137.88c-1.41,0-2.55-1.14-2.55-2.55V62.54c0-1.41,1.14-2.55,2.55-2.55
							c1.41,0,2.55,1.14,2.55,2.55v72.79C240.44,136.74,239.3,137.88,237.89,137.88L237.89,137.88z"/>
					</g>
					<g>
						<path class="st6" d="M227.33,148.2c-1.41,0-2.55-1.14-2.55-2.55V52.21c0-1.41,1.14-2.55,2.55-2.55c1.41,0,2.55,1.14,2.55,2.55
							v93.44C229.88,147.06,228.74,148.2,227.33,148.2z"/>
					</g>
					<g>
						<path class="st6" d="M216.76,170.53c-1.41,0-2.55-1.14-2.55-2.55V29.89c0-1.41,1.14-2.55,2.55-2.55
							c1.41,0,2.55,1.14,2.55,2.55v138.09C219.31,169.39,218.17,170.53,216.76,170.53z"/>
					</g>
					<g>
						<path class="st6" d="M206.2,163.56c-1.41,0-2.55-1.14-2.55-2.55V36.86c0-1.41,1.14-2.55,2.55-2.55c1.41,0,2.55,1.14,2.55,2.55
							v124.14C208.75,162.41,207.61,163.56,206.2,163.56z"/>
					</g>
					<g>
						<path class="st6" d="M195.63,178.01c-1.41,0-2.55-1.14-2.55-2.55V22.41c0-1.41,1.14-2.55,2.55-2.55
							c1.41,0,2.55,1.14,2.55,2.55v153.05C198.18,176.87,197.04,178.01,195.63,178.01z"/>
					</g>
				</g>
				<g>
					<path class="st6" d="M100.38,109.67c-1.41,0-2.55-1.14-2.55-2.55V90.75c0-1.41,1.14-2.55,2.55-2.55c1.41,0,2.55,1.14,2.55,2.55
						v16.37C102.93,108.53,101.79,109.67,100.38,109.67z"/>
				</g>
				<g>
					<path class="st6" d="M110.94,126.31c-1.41,0-2.55-1.14-2.55-2.55V74.11c0-1.41,1.14-2.55,2.55-2.55c1.41,0,2.55,1.14,2.55,2.55
						v49.65C113.49,125.17,112.35,126.31,110.94,126.31L110.94,126.31z"/>
				</g>
				<g>
					<path class="st6" d="M121.51,120.75c-1.41,0-2.55-1.14-2.55-2.55V79.66c0-1.41,1.14-2.55,2.55-2.55c1.41,0,2.55,1.14,2.55,2.55
						v38.54C124.06,119.61,122.92,120.75,121.51,120.75z"/>
				</g>
				<g>
					<path class="st6" d="M132.07,137.88c-1.41,0-2.55-1.14-2.55-2.55V62.54c0-1.41,1.14-2.55,2.55-2.55c1.41,0,2.55,1.14,2.55,2.55
						v72.79C134.62,136.74,133.48,137.88,132.07,137.88L132.07,137.88z"/>
				</g>
				<g>
					<path class="st6" d="M142.64,148.2c-1.41,0-2.55-1.14-2.55-2.55V52.21c0-1.41,1.14-2.55,2.55-2.55c1.41,0,2.55,1.14,2.55,2.55
						v93.44C145.19,147.06,144.05,148.2,142.64,148.2z"/>
				</g>
				<g>
					<path class="st6" d="M153.2,170.53c-1.41,0-2.55-1.14-2.55-2.55V29.89c0-1.41,1.14-2.55,2.55-2.55c1.41,0,2.55,1.14,2.55,2.55
						v138.09C155.75,169.39,154.61,170.53,153.2,170.53z"/>
				</g>
				<g>
					<path class="st6" d="M163.77,163.56c-1.41,0-2.55-1.14-2.55-2.55V36.86c0-1.41,1.14-2.55,2.55-2.55s2.55,1.14,2.55,2.55v124.14
						C166.32,162.41,165.18,163.56,163.77,163.56z"/>
				</g>
				<g>
					<path class="st6" d="M174.33,178.01c-1.41,0-2.55-1.14-2.55-2.55V22.41c0-1.41,1.14-2.55,2.55-2.55c1.41,0,2.55,1.14,2.55,2.55
						v153.05C176.88,176.87,175.74,178.01,174.33,178.01z"/>
				</g>
				<g>
					<path class="st6" d="M184.9,186c-1.41,0-2.55-1.14-2.55-2.55V14.41c0-1.41,1.14-2.55,2.55-2.55c1.41,0,2.55,1.14,2.55,2.55
						v169.04C187.45,184.86,186.31,186,184.9,186z"/>
				</g>
			</g>
			<g>
				
					<ellipse transform="matrix(0.9999 -0.0132 0.0132 0.9999 -1.2917 2.4552)" class="st7" cx="185.07" cy="98.93" rx="45.93" ry="45.93"/>
				<g>
					
						<ellipse transform="matrix(0.1598 -0.9872 0.9872 0.1598 28.1185 264.8465)" class="st0" cx="169.64" cy="115.91" rx="8.12" ry="8.12"/>
					
						<ellipse transform="matrix(0.2244 -0.9745 0.9745 0.2244 49.3985 274.3128)" class="st0" cx="197.03" cy="106.12" rx="8.12" ry="8.12"/>
					<path class="st0" d="M205.14,73.06c-0.18-1.61-1.87-2.66-3.39-2.11l-27.39,9.78c-1.01,0.36-1.69,1.34-1.69,2.4v8.8v23.97
						c0,1.41,1.14,2.55,2.55,2.55c1.41,0,2.55-1.14,2.55-2.55V93.74l22.29-7.96v20.35c0,1.41,1.14,2.55,2.55,2.55
						c1.41,0,2.55-1.14,2.55-2.55V82.16v-8.8C205.15,73.25,205.15,73.16,205.14,73.06L205.14,73.06z M177.76,88.32v-3.39l22.29-7.96
						v3.39L177.76,88.32z"/>
					<path class="st0" d="M202.41,81.56l-27.38,9.98v-8.89l27.38-9.98V81.56z"/>
				</g>
			</g>
		</g>
	</g>
</g>
<g id="CUSTOM-group_00000182498971260338542180000004636772117214171548_">
	<g>
		<g>
			<path class="st6" d="M287.9,233.06c-2.77-2.03-5.61-4.53-7.64-7.57l-1.77-2.66c-0.38-0.56-1.07-0.81-1.72-0.62
				c-0.65,0.2-1.09,0.79-1.09,1.47v24.11c-0.91-0.53-1.95-0.85-3.07-0.85c-3.39,0-6.15,2.76-6.15,6.15c0,3.39,2.76,6.15,6.15,6.15
				s6.15-2.76,6.15-6.15v-24.36c2.17,2.74,4.89,5.01,7.33,6.8c1.2,0.88,1.89,2.24,1.89,3.72c0,2.54-2.07,4.61-4.61,4.61
				c-0.85,0-1.54,0.69-1.54,1.54c0,0.85,0.69,1.54,1.54,1.54c4.24,0,7.68-3.45,7.68-7.68C291.04,236.83,289.87,234.51,287.9,233.06z
				"/>
		</g>
	</g>
	<g>
		<g>
			<path class="st6" d="M316.2,240.17l-21.72,6.15c-0.66,0.19-1.12,0.79-1.12,1.48v20.83c-0.91-0.53-1.95-0.85-3.07-0.85
				c-3.39,0-6.15,2.76-6.15,6.15c0,3.39,2.76,6.15,6.15,6.15s6.15-2.76,6.15-6.15c0-0.35,0-18.82,0-18.82l18.64-5.27v12.65
				c-0.91-0.53-1.95-0.85-3.07-0.85c-3.39,0-6.15,2.76-6.15,6.15c0,3.39,2.76,6.15,6.15,6.15s6.15-2.76,6.15-6.15
				c0-0.35,0-26.12,0-26.12C318.16,240.63,317.19,239.89,316.2,240.17z"/>
		</g>
	</g>
</g>
</svg>
